<svg width="48" height="48" viewBox="0 0 48 48" fill="none" xmlns="http://www.w3.org/2000/svg">
  <!-- Birch Tree Trunk -->
  <rect x="22" y="28" width="4" height="12" fill="#8B7355" rx="0.5"/>
  
  <!-- Tree Branches -->
  <path d="M24 28 L20 24 M24 28 L28 24" stroke="#8B7355" stroke-width="2" stroke-linecap="round"/>
  <path d="M24 24 L21 20 M24 24 L27 20" stroke="#8B7355" stroke-width="1.5" stroke-linecap="round"/>
  
  <!-- Birch Tree Leaves (Three layers for depth) -->
  <!-- Layer 1 - Background -->
  <ellipse cx="24" cy="16" rx="14" ry="12" fill="#4CAF50" opacity="0.3"/>
  
  <!-- Layer 2 - Middle -->
  <ellipse cx="24" cy="15" rx="12" ry="10" fill="#66BB6A" opacity="0.6"/>
  
  <!-- Layer 3 - Foreground with gradient -->
  <defs>
    <linearGradient id="leafGradient" x1="0%" y1="0%" x2="100%" y2="100%">
      <stop offset="0%" style="stop-color:#81C784;stop-opacity:1" />
      <stop offset="100%" style="stop-color:#4CAF50;stop-opacity:1" />
    </linearGradient>
  </defs>
  <ellipse cx="24" cy="14" rx="10" ry="8" fill="url(#leafGradient)"/>
  
  <!-- Birch bark markings -->
  <line x1="22.5" y1="30" x2="22.5" y2="32" stroke="#4A4A4A" stroke-width="0.5" opacity="0.3"/>
  <line x1="25.5" y1="31" x2="25.5" y2="33" stroke="#4A4A4A" stroke-width="0.5" opacity="0.3"/>
  <line x1="23" y1="34" x2="23" y2="36" stroke="#4A4A4A" stroke-width="0.5" opacity="0.3"/>
  
  <!-- Ground/Blueprint base -->
  <rect x="8" y="40" width="32" height="1" fill="#2196F3" opacity="0.5" rx="0.5"/>
  
  <!-- Blueprint grid lines (subtle) -->
  <line x1="12" y1="40" x2="12" y2="42" stroke="#2196F3" stroke-width="0.5" opacity="0.3"/>
  <line x1="18" y1="40" x2="18" y2="42" stroke="#2196F3" stroke-width="0.5" opacity="0.3"/>
  <line x1="24" y1="40" x2="24" y2="42" stroke="#2196F3" stroke-width="0.5" opacity="0.3"/>
  <line x1="30" y1="40" x2="30" y2="42" stroke="#2196F3" stroke-width="0.5" opacity="0.3"/>
  <line x1="36" y1="40" x2="36" y2="42" stroke="#2196F3" stroke-width="0.5" opacity="0.3"/>
</svg>